<?xml version="1.0" standalone="no"?>
<!DOCTYPE svg PUBLIC "-//W3C//DTD SVG 20010904//EN"
 "http://www.w3.org/TR/2001/REC-SVG-20010904/DTD/svg10.dtd">
<svg version="1.0" xmlns="http://www.w3.org/2000/svg"
 width="700.000000pt" height="700.000000pt" viewBox="0 0 700.000000 700.000000"
 preserveAspectRatio="xMidYMid meet">
<metadata>
Created by potrace 1.14, written by Peter Selinger 2001-2017
</metadata>
<g transform="translate(0.000000,700.000000) scale(0.100000,-0.100000)"
fill="#000000" stroke="none">
<path d="M455 6984 c-194 -46 -352 -191 -427 -391 l-23 -58 -2 -3010 c-2
-2949 -2 -3011 17 -3084 42 -159 158 -303 300 -373 149 -73 -123 -68 3181 -68
2974 0 2976 0 3055 21 107 28 196 79 274 158 75 76 120 155 149 261 21 74 21
75 21 3060 l0 2986 -21 74 c-28 101 -70 177 -141 255 -71 77 -154 130 -257
161 l-76 24 -2995 -1 c-2560 -1 -3004 -3 -3055 -15z m3110 -1147 c367 -15 694
-157 954 -416 136 -135 176 -187 262 -336 72 -125 149 -347 165 -475 2 -19 6
-51 9 -70 3 -19 7 -80 10 -134 8 -154 53 -230 168 -285 61 -29 62 -29 253 -31
217 -1 267 -10 336 -63 49 -38 96 -108 109 -164 15 -64 9 -1353 -6 -1450 -53
-319 -186 -588 -402 -808 -95 -97 -134 -130 -238 -199 -214 -142 -460 -226
-710 -242 -97 -6 -1906 -5 -1980 1 -439 37 -857 290 -1098 663 -40 61 -138
245 -138 257 0 7 -9 36 -19 60 -5 11 -15 40 -21 65 -7 25 -14 50 -15 55 -15
54 -35 181 -39 243 -6 92 -6 1944 0 1987 3 26 14 122 17 150 2 21 40 153 65
225 116 335 368 626 693 799 115 61 202 94 329 126 137 34 149 35 326 41 88 3
163 6 167 7 16 4 679 -2 803 -6z"/>
<path d="M2505 4640 c-59 -23 -126 -83 -157 -143 -32 -60 -32 -184 0 -244 30
-57 80 -105 138 -134 l49 -24 595 0 595 0 45 23 c193 101 224 335 62 473 -82
70 -68 68 -705 68 -543 0 -575 -1 -622 -19z"/>
<path d="M2540 2893 c-246 -86 -265 -410 -31 -525 l46 -23 945 -2 c922 -2 946
-1 997 18 58 22 124 83 156 143 31 59 31 184 -1 243 -32 61 -98 120 -159 143
-52 19 -79 20 -981 20 -816 -1 -932 -3 -972 -17z"/>
</g>
</svg>
